<?xml version="1.0" encoding="UTF-8" standalone="no"?>
<!-- Created with Inkscape (http://www.inkscape.org/) -->

<svg
   xmlns:dc="http://purl.org/dc/elements/1.1/"
   xmlns:cc="http://creativecommons.org/ns#"
   xmlns:rdf="http://www.w3.org/1999/02/22-rdf-syntax-ns#"
   xmlns:svg="http://www.w3.org/2000/svg"
   xmlns="http://www.w3.org/2000/svg"
   xmlns:sodipodi="http://sodipodi.sourceforge.net/DTD/sodipodi-0.dtd"
   xmlns:inkscape="http://www.inkscape.org/namespaces/inkscape"
   width="101.53059mm"
   height="73.23732mm"
   viewBox="0 0 101.53059 73.23732"
   version="1.1"
   id="svg1498"
   inkscape:version="0.92.2 2405546, 2018-03-11"
   sodipodi:docname="energy_landscape.svg">
  <defs
     id="defs1492">
    <clipPath
       id="clip1">
      <path
         inkscape:connector-curvature="0"
         d="M 0,0 H 431.10547 V 392.73047 H 0 Z m 0,0"
         id="path6406" />
    </clipPath>
    <clipPath
       id="clip2-3">
      <path
         inkscape:connector-curvature="0"
         id="path22-6"
         d="m 580.02734,303.34766 h 7 v 7 h -7 z m 0,0" />
    </clipPath>
    <marker
       style="overflow:visible"
       id="Arrow2Lend"
       refX="0"
       refY="0"
       orient="auto">
      <path
         inkscape:connector-curvature="0"
         transform="matrix(-1.1,0,0,-1.1,-1.1,0)"
         d="M 8.7185878,4.0337352 -2.2072895,0.01601326 8.7185884,-4.0017078 c -1.7454984,2.3720609 -1.7354408,5.6174519 -6e-7,8.035443 z"
         style="fill:#000000;fill-opacity:1;fill-rule:evenodd;stroke:#000000;stroke-width:0.625;stroke-linejoin:round;stroke-opacity:1"
         id="path966" />
    </marker>
  </defs>
  <sodipodi:namedview
     id="base"
     pagecolor="#ffffff"
     bordercolor="#666666"
     borderopacity="1.0"
     inkscape:pageopacity="0.0"
     inkscape:pageshadow="2"
     inkscape:zoom="1.4"
     inkscape:cx="93.901171"
     inkscape:cy="218.56404"
     inkscape:document-units="mm"
     inkscape:current-layer="layer1"
     showgrid="false"
     fit-margin-top="0"
     fit-margin-left="0"
     fit-margin-right="0"
     fit-margin-bottom="0"
     inkscape:window-width="1920"
     inkscape:window-height="1080"
     inkscape:window-x="-1"
     inkscape:window-y="-2"
     inkscape:window-maximized="1" />
  <metadata
     id="metadata1495">
    <rdf:RDF>
      <cc:Work
         rdf:about="">
        <dc:format>image/svg+xml</dc:format>
        <dc:type
           rdf:resource="http://purl.org/dc/dcmitype/StillImage" />
        <dc:title></dc:title>
      </cc:Work>
    </rdf:RDF>
  </metadata>
  <g
     inkscape:label="Layer 1"
     inkscape:groupmode="layer"
     id="layer1"
     transform="translate(-96.295075,-210.205)">
    <g
       id="g6563"
       clip-path="url(#clip1)"
       style="clip-rule:nonzero;fill:#681cf2;fill-opacity:1;stroke:none;stroke-opacity:1"
       transform="matrix(0.18128122,0,0,0.18128122,119.67434,210.75386)">
      <path
         id="path6561"
         d="M 0.0351562,1.824219 C 0.0390625,1.84375 15.117188,69.988281 35.464844,138.17187 c 10.175781,34.09766 21.660156,68.19922 33.269531,93.85938 5.808594,12.83203 11.640625,23.55078 17.425781,31.15625 2.894532,3.80078 5.777344,6.83203 8.699219,8.95312 2.914063,2.11719 5.910155,3.34375 8.953125,3.34766 2.94141,0.004 5.75391,-0.92969 8.36328,-2.58203 4.89844,-3.11719 9.19531,-8.69531 13.25391,-16.03516 7.08593,-12.84375 13.40234,-31.1914 19.63281,-51.54297 9.33984,-30.51171 18.46875,-65.53125 29.32031,-92.8164 5.41797,-13.640626 11.27735,-25.339845 17.71094,-33.519532 3.21484,-4.09375 6.56641,-7.300782 10.03906,-9.460938 3.47266,-2.160156 7.05078,-3.292969 10.84766,-3.296875 2.94531,0.0039 5.88672,1.117187 8.91406,3.371094 5.67188,4.210937 11.41016,12.453125 16.96094,23.636719 9.73047,19.562502 18.99219,48.050782 27.91406,79.710932 13.38672,47.50391 26.04297,102.17188 38.71094,145.02344 6.33984,21.42969 12.67187,39.90235 19.15234,53.11719 3.25,6.61328 6.52344,11.91797 9.94141,15.65234 1.71094,1.8711 3.46094,3.34766 5.29297,4.38282 1.82812,1.02734 3.7539,1.60546 5.71875,1.60156 1.64453,0.004 3.25781,-0.46485 4.78515,-1.30078 2.96485,-1.62891 5.67969,-4.57813 8.33985,-8.625 4.97265,-7.59375 9.74218,-19.15235 14.39062,-33.66016 8.11719,-25.375 15.78516,-59.74609 22.73828,-97.06641 20.85547,-111.94921 35.25782,-250.402339 35.25782,-250.42187 0.0859,-0.824219 -0.51172,-1.5625 -1.33594,-1.6484375 -0.82422,-0.0859375 -1.5625,0.5117185 -1.64844,1.3398435 0,0.00391 -0.15625,1.519532 -0.46484,4.371094 -2.30469,21.390625 -13,117.71094 -28.20703,208.64453 -7.60157,45.46094 -16.33594,89.58594 -25.69532,122.26563 -4.67187,16.33593 -9.51172,29.8164 -14.38281,39.10546 -2.42969,4.64063 -4.875,8.22657 -7.23047,10.57813 -1.17578,1.17578 -2.32422,2.04297 -3.41797,2.59766 -1.09375,0.55859 -2.11718,0.82031 -3.1289,0.82031 -1.1211,0 -2.25,-0.25781 -3.42578,-0.80078 -2.27735,-1.03907 -4.71875,-3.1836 -7.1875,-6.36719 -4.63672,-5.96484 -9.34375,-15.48828 -14.01172,-27.51563 -8.17578,-21.05468 -16.29297,-49.78515 -24.50391,-81.0039 C 284.13281,227.20703 271.57812,174.77344 258.10156,133.96875 251.35937,113.5625 244.39453,96.066406 237.04687,83.5625 233.36719,77.308594 229.59375,72.292969 225.625,68.777344 c -3.96094,-3.503906 -8.19141,-5.542969 -12.64453,-5.542969 -3.58203,0 -7.00781,0.886719 -10.23438,2.511719 -6.05468,3.054687 -11.41406,8.644531 -16.34375,15.996094 -8.61718,12.871093 -15.95703,31.246092 -22.73828,51.617182 -10.15625,30.54688 -19.01562,65.58985 -28.53906,92.91407 -4.75391,13.65625 -9.6875,25.38281 -14.94922,33.57422 -2.625,4.09765 -5.32812,7.30468 -8.0664,9.43359 -2.74219,2.13672 -5.46094,3.20312 -8.29688,3.20703 -2.21094,0 -4.605469,-0.89844 -7.191406,-2.77344 C 91.773438,266.21094 86.484375,259.33203 81.148438,250.00781 71.792969,233.69141 62.1875,209.92969 53.089844,183.51953 39.4375,143.90234 26.902344,98.304688 17.785156,62.621094 13.222656,44.78125 9.519531,29.414062 6.953125,18.511719 5.671875,13.0625 4.671875,8.726562 3.996094,5.753906 3.65625,4.269531 3.398438,3.125 3.226562,2.351562 3.054688,1.578125 2.964844,1.179688 2.964844,1.175781 2.785156,0.367188 1.984375,-0.140625 1.175781,0.0351562 0.367188,0.214844 -0.144531,1.015625 0.0351562,1.824219"
         style="fill:#681cf2;fill-opacity:1;fill-rule:nonzero;stroke:none;stroke-opacity:1"
         inkscape:connector-curvature="0" />
    </g>
    <g
       clip-path="url(#clip2-3)"
       id="g44"
       style="clip-rule:nonzero;fill:#23e048;fill-opacity:1"
       transform="matrix(0.35277777,0,0,0.35277777,-68.272139,143.58281)">
      <path
         inkscape:connector-curvature="0"
         style="fill:#23e048;fill-opacity:1;fill-rule:nonzero;stroke:none"
         d="m 583.52734,310.34766 c 0.92578,0 1.81641,-0.36719 2.47266,-1.02344 0.65625,-0.65625 1.02734,-1.54688 1.02734,-2.47656 0,-0.92579 -0.37109,-1.81641 -1.02734,-2.47266 -0.65625,-0.65625 -1.54688,-1.02734 -2.47266,-1.02734 -0.92968,0 -1.82031,0.37109 -2.47656,1.02734 -0.65625,0.65625 -1.02344,1.54687 -1.02344,2.47266 0,0.92968 0.36719,1.82031 1.02344,2.47656 0.65625,0.65625 1.54688,1.02344 2.47656,1.02344 z m 0,0"
         id="path42" />
    </g>
    <path
       inkscape:connector-curvature="0"
       id="path943"
       d="M 110.33622,283.44232 V 210.72127"
       style="fill:none;fill-rule:evenodd;stroke:#000000;stroke-width:0.26458332px;stroke-linecap:butt;stroke-linejoin:miter;stroke-opacity:1;marker-end:url(#Arrow2Lend)"
       sodipodi:nodetypes="cc" />
    <g
       id="flowRoot1253"
       style="font-style:normal;font-weight:normal;font-size:40px;line-height:25px;font-family:sans-serif;letter-spacing:0px;word-spacing:0px;fill:#000000;fill-opacity:1;stroke:none;stroke-width:1px;stroke-linecap:butt;stroke-linejoin:miter;stroke-opacity:1"
       transform="matrix(0.26458333,0,0,0.26458333,-51.756351,137.0248)"
       aria-label="Energy">
      <path
         inkscape:connector-curvature="0"
         id="path1261"
         style="font-size:13.33333302px"
         d="m 559.56445,276.58659 h 6.14584 v 1.10677 h -4.83073 v 2.8776 h 4.6289 v 1.10677 h -4.6289 v 3.52214 h 4.94791 v 1.10677 h -6.26302 z" />
      <path
         inkscape:connector-curvature="0"
         id="path1263"
         style="font-size:13.33333302px"
         d="m 574.01107,281.9056 v 4.40104 h -1.19792 v -4.36198 q 0,-1.03515 -0.40364,-1.54948 -0.40365,-0.51432 -1.21094,-0.51432 -0.97005,0 -1.52995,0.61849 -0.5599,0.61849 -0.5599,1.6862 v 4.12109 h -1.20442 v -7.29167 h 1.20442 v 1.13282 q 0.42969,-0.65756 1.00912,-0.98308 0.58594,-0.32552 1.34765,-0.32552 1.25652,0 1.90105,0.78125 0.64453,0.77474 0.64453,2.28516 z" />
      <path
         inkscape:connector-curvature="0"
         id="path1265"
         style="font-size:13.33333302px"
         d="m 582.65039,282.36133 v 0.58594 h -5.50781 q 0.0781,1.23697 0.74218,1.88802 0.67058,0.64453 1.86198,0.64453 0.69011,0 1.33464,-0.16927 0.65104,-0.16927 1.28906,-0.50782 v 1.13282 q -0.64453,0.27343 -1.32161,0.41666 -0.67709,0.14323 -1.3737,0.14323 -1.74479,0 -2.76693,-1.01562 -1.01562,-1.01563 -1.01562,-2.7474 0,-1.79036 0.96354,-2.83854 0.97005,-1.05469 2.61068,-1.05469 1.47135,0 2.32421,0.95052 0.85938,0.94401 0.85938,2.57162 z m -1.19792,-0.35156 q -0.013,-0.98308 -0.55338,-1.56901 -0.53386,-0.58594 -1.41927,-0.58594 -1.00261,0 -1.60808,0.5664 -0.59895,0.56641 -0.6901,1.59506 z" />
      <path
         inkscape:connector-curvature="0"
         id="path1267"
         style="font-size:13.33333302px"
         d="m 588.8418,280.13477 q -0.20183,-0.11719 -0.44271,-0.16928 -0.23438,-0.0586 -0.52084,-0.0586 -1.01562,0 -1.5625,0.66406 -0.54036,0.65756 -0.54036,1.89453 v 3.84115 h -1.20443 v -7.29167 h 1.20443 v 1.13282 q 0.3776,-0.66407 0.98307,-0.98308 0.60547,-0.32552 1.47136,-0.32552 0.12369,0 0.27343,0.0195 0.14974,0.013 0.33204,0.0456 z" />
      <path
         inkscape:connector-curvature="0"
         id="path1269"
         style="font-size:13.33333302px"
         d="m 594.67513,282.57617 q 0,-1.30208 -0.54037,-2.01823 -0.53385,-0.71614 -1.5039,-0.71614 -0.96354,0 -1.50391,0.71614 -0.53385,0.71615 -0.53385,2.01823 0,1.29557 0.53385,2.01172 0.54037,0.71615 1.50391,0.71615 0.97005,0 1.5039,-0.71615 0.54037,-0.71615 0.54037,-2.01172 z m 1.19792,2.82552 q 0,1.86198 -0.82683,2.76693 -0.82682,0.91146 -2.53255,0.91146 -0.63151,0 -1.19141,-0.0977 -0.55989,-0.0911 -1.08724,-0.28646 v -1.16536 q 0.52735,0.28646 1.04167,0.42318 0.51432,0.13671 1.04818,0.13671 1.17838,0 1.76432,-0.61848 0.58594,-0.61198 0.58594,-1.85547 v -0.59245 q -0.37109,0.64453 -0.95052,0.96354 -0.57943,0.31901 -1.38672,0.31901 -1.34115,0 -2.16146,-1.02213 -0.82031,-1.02214 -0.82031,-2.70834 0,-1.69271 0.82031,-2.71484 0.82031,-1.02214 2.16146,-1.02214 0.80729,0 1.38672,0.31901 0.57943,0.31901 0.95052,0.96354 v -1.10677 h 1.19792 z" />
      <path
         inkscape:connector-curvature="0"
         id="path1271"
         style="font-size:13.33333302px"
         d="m 601.37435,286.98372 q -0.50781,1.30209 -0.98958,1.69922 -0.48178,0.39714 -1.28907,0.39714 h -0.95703 v -1.00261 h 0.70313 q 0.49479,0 0.76823,-0.23437 0.27343,-0.23438 0.60546,-1.10677 l 0.21485,-0.54688 -2.94922,-7.17448 h 1.26953 l 2.27865,5.70313 2.27864,-5.70313 h 1.26953 z" />
    </g>
  </g>
</svg>
